# xmcd CD database file generated by OrangeCD 5.0
#
# Track frame offsets:
#	182
#	26732
#	42177
#
# Disc length: 686 seconds
#
# Revision: 2
# Processed by: cddbd v1.4PL0 Copyright (c) Steve Scherf et al.
# Submitted via: OrangeCD 5.0
#
DISCID=1d02ac03
DTITLE=Neil Young and The Bluenotes - This Note's For You (Promo)
DYEAR=1988
DGENRE=Blues
TTITLE0=This Note's For You (Live Version)
TTITLE1=This Note's For You (Edit of Live Version)
TTITLE2=This Note's For You (LP Version)
EXTD=
EXTT0=
EXTT1=
EXTT2=
PLAYORDER=
